<svg xmlns="http://www.w3.org/2000/svg" viewBox="0 0 14.14 14.14"><defs><style>.cls-1{fill:#f2e6cd;}</style></defs><g id="Layer_2" data-name="Layer 2"><g id="Layer_1-2" data-name="Layer 1"><path class="cls-1" d="M7.07,0a7.07,7.07,0,1,0,7.07,7.07A7.08,7.08,0,0,0,7.07,0ZM9,4.19a.1.1,0,0,1-.1.11H8.08a.38.38,0,0,0-.38.38v.89H8.91a.1.1,0,0,1,.1.12l-.1,1.25A.11.11,0,0,1,8.8,7H7.7V11.2a.11.11,0,0,1-.11.11H6.07A.11.11,0,0,1,6,11.2V7H5.2a.11.11,0,0,1-.11-.11V5.68a.11.11,0,0,1,.11-.11H6V4.36A1.54,1.54,0,0,1,7.49,2.83H8.93a.1.1,0,0,1,.1.11Z"/></g></g></svg>