<svg xmlns="http://www.w3.org/2000/svg" viewBox="0 0 14.05 14.05"><defs><style>.cls-1{fill:#f2e6cd;}</style></defs><g id="Layer_2" data-name="Layer 2"><g id="Layer_1-2" data-name="Layer 1"><path class="cls-1" d="M7,14.05a7,7,0,1,1,7-7A7,7,0,0,1,7,14.05ZM9.39,4.18a.52.52,0,1,0,0,1,.52.52,0,1,0,0-1Zm-2.31.66A2.19,2.19,0,1,0,9.27,7,2.19,2.19,0,0,0,7.08,4.84Zm0,3.58A1.4,1.4,0,1,1,8.48,7,1.4,1.4,0,0,1,7.08,8.42Zm4.41-3.21A2.66,2.66,0,0,0,8.83,2.55H5.31A2.66,2.66,0,0,0,2.65,5.21V8.73a2.66,2.66,0,0,0,2.66,2.66H8.83a2.66,2.66,0,0,0,2.66-2.66Zm-.83,3.52a1.83,1.83,0,0,1-1.83,1.83H5.31A1.83,1.83,0,0,1,3.48,8.73V5.21A1.83,1.83,0,0,1,5.31,3.38H8.83a1.83,1.83,0,0,1,1.83,1.83Z"/></g></g></svg>