<svg xmlns="http://www.w3.org/2000/svg" viewBox="0 0 14.12 14.12"><defs><style>.cls-1{fill:#f2e6cd;}</style></defs><g id="Layer_2" data-name="Layer 2"><g id="Layer_1-2" data-name="Layer 1"><path class="cls-1" d="M7.77,6.25v0Z"/><path class="cls-1" d="M7.06,0a7.06,7.06,0,1,0,7.06,7.06A7.07,7.07,0,0,0,7.06,0ZM5.29,10.23a.11.11,0,0,1-.11.12H3.82a.12.12,0,0,1-.12-.12V5.67a.12.12,0,0,1,.12-.12H5.18a.11.11,0,0,1,.11.12ZM4.45,4.94a.86.86,0,1,1,0-1.71.86.86,0,0,1,0,1.71Zm6.6,5.29a.12.12,0,0,1-.12.12H9.57a.12.12,0,0,1-.12-.12V7.78c0-.64-.23-1.08-.8-1.08a.85.85,0,0,0-.82.58.94.94,0,0,0-.06.39v2.56a.11.11,0,0,1-.11.12H6.3a.12.12,0,0,1-.12-.12c0-.65,0-3.82,0-4.56a.12.12,0,0,1,.12-.12H7.66a.11.11,0,0,1,.11.12v.56a1.59,1.59,0,0,1,1.44-.79c1,0,1.84.68,1.84,2.16Z"/></g></g></svg>