<svg xmlns="http://www.w3.org/2000/svg" xmlns:xlink="http://www.w3.org/1999/xlink" viewBox="0 0 982.01 907.94"><defs><style>.cls-1{isolation:isolate;}.cls-2{fill:url(#linear-gradient);}.cls-3{fill:#fff;}.cls-14,.cls-4{fill:#e16a26;}.cls-5{mix-blend-mode:multiply;opacity:0.9;fill:url(#radial-gradient);}.cls-6{font-size:178.84px;font-family:Gotham-Black, Gotham Black;font-weight:800;letter-spacing:-0.05em;}.cls-6,.cls-8{fill:#58595b;}.cls-7{letter-spacing:-0.08em;}.cls-8{font-size:60px;font-family:Gotham-Book, Gotham;letter-spacing:-0.1em;}.cls-9{letter-spacing:-0.05em;}.cls-10{letter-spacing:-0.06em;}.cls-11{letter-spacing:-0.18em;}.cls-12{letter-spacing:-0.15em;}.cls-13{letter-spacing:-0.09em;}.cls-14{font-size:48px;font-family:Gotham-Bold, Gotham;font-weight:700;letter-spacing:-0.05em;}</style><linearGradient id="linear-gradient" x1="429.05" y1="238.22" x2="711.28" y2="627.97" gradientUnits="userSpaceOnUse"><stop offset="0" stop-color="#262262"/><stop offset="0.11" stop-color="#212c72"/><stop offset="0.42" stop-color="#13499d"/><stop offset="0.51" stop-color="#1b429a"/><stop offset="0.73" stop-color="#2e3192"/><stop offset="0.79" stop-color="#2c2c83"/><stop offset="0.92" stop-color="#27256b"/><stop offset="1" stop-color="#262262"/></linearGradient><radialGradient id="radial-gradient" cx="477.24" cy="330.52" fx="351.9396190187715" fy="349.9071120493872" r="371.71" gradientTransform="translate(543.56 -247.12) rotate(61.71)" gradientUnits="userSpaceOnUse"><stop offset="0.19" stop-color="#fff" stop-opacity="0"/><stop offset="0.85" stop-color="#393939" stop-opacity="0.78"/><stop offset="0.92"/></radialGradient></defs><g class="cls-1"><g id="Layer_2" data-name="Layer 2"><g id="Layer_1-2" data-name="Layer 1"><path class="cls-2" d="M760.82,598.09,611.46,392.25a136.24,136.24,0,0,0-119-202.61q-5,0-9.81.35l71.51,96.63-30.32,76.87L437.28,370l-70.23-97.28A136.3,136.3,0,0,0,519.3,459.42L667.16,666A381.9,381.9,0,0,0,760.82,598.09Z"/><path class="cls-3" d="M735.59,624.77,576.75,408.58a19.35,19.35,0,0,0-26.1-4.79h0a19.34,19.34,0,0,0-5.12,27.67l157.93,216Z"/><path class="cls-4" d="M535.9,500.21a179.66,179.66,0,1,1-43.39-354c99.21,0,179.64,80.44,179.64,179.65a178.8,178.8,0,0,1-27.17,95l85.84,118.3a318.68,318.68,0,0,0,81.54-213.32C812.36,149.2,669.16,6,492.51,6S172.65,149.2,172.65,325.85,315.86,645.7,492.51,645.7a318.63,318.63,0,0,0,128.35-26.82Z"/><path class="cls-5" d="M531.9,494.21a179.66,179.66,0,1,1-43.39-354c99.21,0,179.64,80.44,179.64,179.65a178.8,178.8,0,0,1-27.17,95l85.84,118.3a318.68,318.68,0,0,0,81.54-213.32C808.36,143.2,665.16,0,488.51,0S168.65,143.2,168.65,319.85,311.86,639.7,488.51,639.7a318.63,318.63,0,0,0,128.35-26.82Z"/><text class="cls-6" transform="translate(33.96 823.6)">Q<tspan class="cls-7" x="139.67" y="0">U</tspan><tspan x="261.46" y="0">ANTUM</tspan></text><text class="cls-8" transform="translate(0 897.8)">T<tspan class="cls-9" x="33" y="0">OOLS &amp; INDU</tspan><tspan class="cls-10" x="412.61" y="0">S</tspan><tspan class="cls-9" x="447.11" y="0">TRIAL SUPP</tspan><tspan class="cls-11" x="783.47" y="0">L</tspan><tspan class="cls-9" x="809.81" y="0">Y </tspan><tspan class="cls-12" x="864.77" y="0">L</tspan><tspan class="cls-9" x="892.91" y="0">T</tspan><tspan class="cls-13" x="928.79" y="0">D</tspan><tspan class="cls-9" x="970.31" y="0">.</tspan></text><text class="cls-14" transform="translate(743.15 563.77)">®</text></g></g></g></svg>